# xmcd CD database file
#
# Track frame offsets:
#	150
#	9847
#	20392
#	31362
#	41610
#	57013
#	68119
#	80857
#	91057
#	101989
#	111834
#	121115
#	131214
#	143797
#	153733
#	163956
#	175223
#	183904
#	193388
#	202637
#	213810
#	224439
#	235493
#	245028
#	255226
#	264054
#	272554
#	279725
#
# Disc length: 3849 seconds
#
# Revision: 0
# Processed by: cddbd v1.5.2PL0 Copyright (c) Steve Scherf et al.
# Submitted via: CDex 1.51
#
DISCID=920f071c
DTITLE=Jimmie Williams - Paddle Your Own Canoe
DYEAR=1900
DGENRE=Country
TTITLE0=Jimmie Williams/I'll Never Get Out Of This World Alive
TTITLE1=Jimmie Williams/Kaw-Liga
TTITLE2=Jimmie Williams/Again
TTITLE3=Jimmie Williams/You Can't Make Me Cry
TTITLE4=Jimmie Williams/Paddle Your Own Canoe
TTITLE5=Jimmie Williams/Without Me
TTITLE6=Jimmie Williams/We're Drifting Farther Apart
TTITLE7=Jimmie Williams/Your Cheating Heart
TTITLE8=Jimmie Williams/Don't Let The Stars Get In Your Eyes
TTITLE9=Jimmie Williams/Let Me Know
TTITLE10=Jimmie Williams/Eddy's Song
TTITLE11=Jimmie Williams/Lonely Tunes
TTITLE12=Jimmie Williams/Precious Memories
TTITLE13=Jimmie Williams/I Can't Stop Loving You
TTITLE14=Jimmie Williams/Making Believe
TTITLE15=Jimmie Williams/Satisfied Mind
TTITLE16=Jimmie Williams/The Window Up Above
TTITLE17=Jimmie Williams/Crazy Arms
TTITLE18=Jimmie Williams/No Tears In Heaven
TTITLE19=Jimmie Williams/The Old Rugged Cross
TTITLE20=Jimmie Williams/More Pretty Girls Than One
TTITLE21=Jimmie Williams/Barbara Allen
TTITLE22=Jimmie Williams/You Win Again
TTITLE23=Jimmie Williams/I'm So Lonesome I Could Cry
TTITLE24=Jimmie Williams/Mansion On The Hill
TTITLE25=Jimmie Williams/John Henry
TTITLE26=Jimmie Williams/Amazing Grace
TTITLE27=Jimmie Williams/Where Could I Go But To The Lord
EXTD=
EXTT0=
EXTT1=
EXTT2=
EXTT3=
EXTT4=
EXTT5=
EXTT6=
EXTT7=
EXTT8=
EXTT9=
EXTT10=
EXTT11=
EXTT12=
EXTT13=
EXTT14=
EXTT15=
EXTT16=
EXTT17=
EXTT18=
EXTT19=
EXTT20=
EXTT21=
EXTT22=
EXTT23=
EXTT24=
EXTT25=
EXTT26=
EXTT27=
PLAYORDER=
